Results
version=1
nRows=22
nColumns=24
inDegrees=yes
endheader
time	pelvis_tilt	pelvis_list	pelvis_rotation	pelvis_tx	pelvis_ty	pelvis_tz	hip_flexion_r	hip_adduction_r	hip_rotation_r	knee_angle_r	ankle_angle_r	subtalar_angle_r	mtp_angle_r	hip_flexion_l	hip_adduction_l	hip_rotation_l	knee_angle_l	ankle_angle_l	subtalar_angle_l	mtp_angle_l	lumbar_extension	lumbar_bending	lumbar_rotation
      1.10833333	     -2.19529433	     -5.03407173	     -3.73836054	     -0.13623265	      1.06093058	      0.34606120	     -9.93243020	      9.97838576	      2.73572744	     -9.28076083	      5.66966635	     -9.04450098	      2.60283597	     22.91249056	     -3.24979338	     -8.50939457	      3.39607283	      3.29564807	      0.69286512	     -2.27299697	      4.03442098	      9.93995348	      2.75419597
      1.11250000	     -2.20536691	     -5.05200111	     -3.74054441	     -0.13052636	      1.06048459	      0.34595487	    -10.04666146	      9.97213337	      2.79308250	     -9.68216750	      5.62848002	     -9.04789043	      2.60595526	     22.88379520	     -3.20486387	     -8.41546833	      3.25106599	      3.29696475	      0.75194768	     -2.27443346	      4.08087378	      9.92776398	      2.75664440
      1.11666667	     -2.20526371	     -5.06989270	     -3.73726262	     -0.12481471	      1.06006830	      0.34586945	    -10.15719930	      9.96924758	      2.84502340	    -10.11136793	      5.57825380	     -9.05308851	      2.60984197	     22.84665784	     -3.16377925	     -8.28046537	      3.04239349	      3.30099032	      0.81435296	     -2.27511867	      4.12347537	      9.91245416	      2.76094121
      1.12083333	     -2.20279739	     -5.10890364	     -3.64319510	     -0.11912244	      1.05962062	      0.34568893	    -10.25922684	     10.00694404	      2.83899997	    -10.53896719	      5.45444609	     -9.06879402	      2.62672656	     22.82527541	     -3.11737671	     -7.94280284	      2.76286798	      3.34933201	      0.93587614	     -2.27724592	      4.09908467	      9.93233570	      2.75686650
      1.12500000	     -2.19062104	     -5.11195146	     -3.65073749	     -0.11331501	      1.05927736	      0.34564744	    -10.35527624	      9.98513230	      2.86563898	    -11.02576019	      5.39985006	     -9.07979610	      2.63100748	     22.76650137	     -3.07252165	     -7.82018773	      2.46081127	      3.32673884	      0.94589331	     -2.27752256	      4.15902221	      9.90314525	      2.76335548
      1.12916667	     -2.19789555	     -5.14976117	     -3.54594797	     -0.10758439	      1.05884917	      0.34542596	    -10.40423967	     10.02058119	      2.76014206	    -11.52810982	      5.19986709	     -9.06975103	      2.65499725	     22.74561409	     -3.02401667	     -7.37409183	      2.11756363	      3.23286984	      0.88191389	     -2.27870064	      4.11152265	      9.89431974	      2.76146167
      1.13333333	     -2.16769753	     -5.14091105	     -3.56134217	     -0.10172164	      1.05859168	      0.34541461	    -10.48817262	      9.98247173	      2.77654112	    -12.07832404	      5.13381720	     -9.07385602	      2.66117444	     22.65261999	     -2.97688405	     -7.23000231	      1.76342603	      3.18077519	      0.85041184	     -2.27869406	      4.19966142	      9.86100230	      2.76967881
      1.13750000	     -2.14546738	     -5.17714647	     -3.32732157	     -0.09590173	      1.05820017	      0.34492443	    -10.53385537	     10.02365427	      2.45022137	    -12.61378725	      4.78206999	     -8.94866523	      2.73250822	     22.59338994	     -2.86876036	     -6.48784394	      1.40550142	      2.77564900	      0.18099060	     -2.28025831	      4.23699424	      9.90380484	      2.74780835
      1.14166667	     -2.13363127	     -5.14591991	     -3.40001785	     -0.08997831	      1.05800248	      0.34496419	    -10.55509023	      9.94745147	      2.47458371	    -13.25365615	      4.72727190	     -8.95190504	      2.74105073	     22.48078254	     -2.82382705	     -6.32018184	      1.05454224	      2.70981514	      0.14852964	     -2.27930554	      4.28292057	      9.83478275	      2.75059578
      1.14583333	     -2.11582287	     -5.12966972	     -3.43456212	     -0.08406690	      1.05782293	      0.34496913	    -10.56150400	      9.89353815	      2.45275638	    -13.92324279	      4.61820179	     -8.93051077	      2.75066662	     22.36967055	     -2.78424334	     -6.12857409	      0.68415473	      2.58673242	      0.09401453	     -2.27900902	      4.32900214	      9.75507598	      2.76133061
      1.15000000	     -2.16988559	     -5.11547008	     -3.21296017	     -0.07809475	      1.05743361	      0.34419029	    -10.44883185	      9.84058457	      1.95380401	    -14.60149283	      4.29546092	     -8.48874224	      2.95396625	     22.30720078	     -2.60161567	     -4.99373374	      0.42922963	      1.70920649	     -1.66853637	     -2.26022041	      4.40923619	      9.75336996	      2.67720319
      1.15416667	     -2.13686245	     -5.08159100	     -3.25105802	     -0.07213745	      1.05734933	      0.34421982	    -10.43228943	      9.76336051	      1.92230609	    -15.34140682	      4.17357078	     -8.47602718	      2.96587896	     22.16274961	     -2.55291415	     -4.84843918	      0.06620143	      1.58891223	     -1.65252867	     -2.25847288	      4.46503672	      9.67504556	      2.68670590
      1.15833333	     -2.15245373	     -5.03071539	     -3.10683703	     -0.06606951	      1.05714588	      0.34363425	    -10.32183746	      9.65621638	      1.47750282	    -16.10025536	      3.75562946	     -8.06290199	      3.22438199	     22.04936420	     -2.37808662	     -4.13177100	     -0.21021999	      0.76934657	     -2.74219021	     -2.21609441	      4.51124574	      9.59535237	      2.62857695
      1.16250000	     -2.15390159	     -4.94655491	     -3.11130531	     -0.05993525	      1.05708442	      0.34348033	    -10.21705360	      9.50716648	      1.24641984	    -16.91604141	      3.43404811	     -7.95940996	      3.27456765	     21.91692684	     -2.25466090	     -3.96688913	     -0.53263526	      0.43729075	     -2.77227831	     -2.20881893	      4.49958652	      9.47390183	      2.64321887
      1.16666667	     -2.13998203	     -4.86070826	     -3.06934154	     -0.05378623	      1.05706781	      0.34321915	    -10.10343340	      9.35334363	      0.93699592	    -17.75672974	      2.97573680	     -7.73261502	      3.34516300	     21.76570310	     -2.11041135	     -3.72352255	     -0.83875363	     -0.06724814	     -2.98010801	     -2.20108295	      4.54048646	      9.34370557	      2.67095201
      1.17083333	     -2.07610142	     -4.80470819	     -2.95005405	     -0.04772996	      1.05710400	      0.34283383	    -10.02117566	      9.23602837	      0.59332605	    -18.60905047	      2.45280583	     -7.35031072	      3.48405058	     21.57418927	     -1.97190365	     -3.32973507	     -1.14650870	     -0.75562925	     -3.60206923	     -2.18368806	      4.65403819	      9.21015423	      2.70090104
      1.17500000	     -2.04672124	     -4.69239128	     -2.92906107	     -0.04156413	      1.05719388	      0.34237373	     -9.86690442	      9.01191800	      0.26265630	    -19.55581423	      2.08266800	     -6.95911945	      3.75570496	     21.33733433	     -1.79171831	     -2.71240529	     -1.33195296	     -1.43811539	     -4.57615527	     -2.13784566	      4.73771133	      9.14619937	      2.67685560
      1.17916667	     -2.04421395	     -4.58346209	     -2.94781967	     -0.03545481	      1.05728306	      0.34214061	     -9.64953640	      8.80204191	     -0.02853160	    -20.56909525	      1.78943001	     -6.86867877	      3.80976577	     21.19213137	     -1.65449465	     -2.63031149	     -1.65683547	     -1.66928158	     -4.65895460	     -2.12968262	      4.66225001	      8.99761013	      2.68465000
      1.18333333	     -1.96432729	     -4.45691141	     -2.88280644	     -0.02924413	      1.05750526	      0.34166949	     -9.51063160	      8.55867450	     -0.38753697	    -21.54221276	      1.04093180	     -6.34865548	      4.05095135	     20.92122145	     -1.45879772	     -2.16812701	     -1.87245751	     -2.46565464	     -5.32204330	     -2.09880999	      4.80793104	      8.85205537	      2.70414493
      1.18750000	     -1.91754877	     -4.34065526	     -2.80940798	     -0.02320044	      1.05767816	      0.34104170	     -9.27366567	      8.30713467	     -0.85441430	    -22.63585111	      0.60048985	     -5.96569826	      4.53013875	     20.71617369	     -1.25903195	     -1.71922560	     -2.14307870	     -3.10830862	     -6.37062433	     -2.02831549	      4.75479585	      8.72040131	      2.66405156
      1.19166667	     -1.87231199	     -4.19114130	     -2.77166898	     -0.01700440	      1.05791770	      0.34070525	     -9.03546518	      8.03216718	     -1.21586087	    -23.72019839	     -0.06097341	     -5.66953896	      4.66180585	     20.52239966	     -1.07062957	     -1.62075848	     -2.45954479	     -3.47883360	     -6.40262766	     -2.01268601	      4.76645765	      8.45437260	      2.70406907
      1.19583333	     -1.79708980	     -4.00936371	     -2.78046393	     -0.01076710	      1.05825678	      0.34026831	     -8.80323623	      7.68593288	     -1.53666491	    -24.84202484	     -0.82986468	     -5.25002455	      4.90709576	     20.24495399	     -0.84932489	     -1.33277769	     -2.68854629	     -3.98886019	     -6.76938331	     -1.98926338	      4.81407292	      8.29745560	      2.72100821
